<?xml version="1.0" encoding="UTF-8"?>
<svg id="_レイヤー_2" data-name="レイヤー 2" xmlns="http://www.w3.org/2000/svg" viewBox="0 0 299.09 299.09">
  <defs>
    <style>
      .cls-1 {
        font-family: UDDigiKyokashoNK-B, 'UD Digi Kyokasho NK-B';
        font-size: 36px;
      }

      .cls-1, .cls-2 {
        fill: #d6d6d6;
      }

      .cls-2 {
        stroke-width: 0px;
      }
    </style>
  </defs>
  <g id="_レイヤー_1-2" data-name="レイヤー 1">
    <text class="cls-1" transform="translate(30.46 150.31) rotate(-82.24)"><tspan x="0" y="0">は</tspan></text>
    <text class="cls-1" transform="translate(35.28 117.24) rotate(-67.4)"><tspan x="0" y="0">し</tspan></text>
    <text class="cls-1" transform="translate(45.76 91.64) rotate(-53.53)"><tspan x="0" y="0">も</tspan></text>
    <text class="cls-1" transform="translate(63.37 67.85) rotate(-39.6)"><tspan x="0" y="0">と</tspan></text>
    <text class="cls-1" transform="translate(84.93 49.49) rotate(-24.69)"><tspan x="0" y="0">あ</tspan></text>
    <text class="cls-1" transform="translate(115.17 35.4) rotate(-8.21)"><tspan x="0" y="0">び</tspan></text>
    <text class="cls-1" transform="translate(149.42 30.84) rotate(6.68)"><tspan x="0" y="0">り</tspan></text>
    <text class="cls-1" transform="translate(177 33.67) rotate(21.41)"><tspan x="0" y="0">ん</tspan></text>
    <text class="cls-1" transform="translate(207.61 45.48) rotate(37.61)"><tspan x="0" y="0">の</tspan></text>
    <text class="cls-1" transform="translate(234.52 66.72) rotate(52.31)"><tspan x="0" y="0">う</tspan></text>
    <text class="cls-1" transform="translate(251.21 87.85) rotate(66.24)"><tspan x="0" y="0">え</tspan></text>
    <text class="cls-1" transform="translate(263.75 115.8) rotate(81.67)"><tspan x="0" y="0">ん</tspan></text>
    <text class="cls-1" transform="translate(268.63 148.27) rotate(97.51)"><tspan x="0" y="0">は</tspan></text>
    <text class="cls-1" transform="translate(263.95 181.35) rotate(112.34)"><tspan x="0" y="0">し</tspan></text>
    <text class="cls-1" transform="translate(253.59 206.99) rotate(126.21)"><tspan x="0" y="0">も</tspan></text>
    <text class="cls-1" transform="translate(236.09 230.86) rotate(140.15)"><tspan x="0" y="0">と</tspan></text>
    <text class="cls-1" transform="translate(214.6 249.32) rotate(155.06)"><tspan x="0" y="0">あ</tspan></text>
    <text class="cls-1" transform="translate(184.44 263.54) rotate(171.53)"><tspan x="0" y="0">び</tspan></text>
    <text class="cls-1" transform="translate(150.19 268.25) rotate(-173.57)"><tspan x="0" y="0">り</tspan></text>
    <text class="cls-1" transform="translate(122.62 265.55) rotate(-158.85)"><tspan x="0" y="0">ん</tspan></text>
    <text class="cls-1" transform="translate(91.95 253.88) rotate(-142.65)"><tspan x="0" y="0">の</tspan></text>
    <text class="cls-1" transform="translate(64.95 232.76) rotate(-127.95)"><tspan x="0" y="0">う</tspan></text>
    <text class="cls-1" transform="translate(48.16 211.69) rotate(-114.01)"><tspan x="0" y="0">え</tspan></text>
    <text class="cls-1" transform="translate(35.49 183.81) rotate(-98.59)"><tspan x="0" y="0">ん</tspan></text>
    <circle class="cls-2" cx="149.55" cy="149.55" r="111.28"/>
  </g>
</svg>